<?xml version="1.0" encoding="utf-8"?>
<!-- Generator: Adobe Illustrator 22.0.1, SVG Export Plug-In . SVG Version: 6.00 Build 0)  -->
<svg version="1.1" id="Layer_1" xmlns="http://www.w3.org/2000/svg" xmlns:xlink="http://www.w3.org/1999/xlink" x="0px" y="0px"
	 viewBox="0 0 512 512" style="enable-background:new 0 0 512 512;" xml:space="preserve">
<style type="text/css">
	.st0{fill:#E2E5E7;}
	.st1{fill:#B0B7BD;}
	.st2{fill:#CAD1D8;}
	.st3{fill:#EBEFF0;}
	.st4{fill:#F15642;}
	.st5{fill:#FFFFFF;}
	.st6{fill:url(#SVGID_1_);}
	.st7{display:none;fill:#EBEFF0;}
	.st8{fill:url(#SVGID_2_);}
	.st9{fill:url(#SVGID_3_);}
	.st10{fill:url(#SVGID_4_);}
</style>
<g>
	<path class="st0" d="M33.6,20.1C19,20.1,7,32.1,7,46.7v372.1c0,14.6,12,26.6,26.6,26.6h265.8c14.6,0,26.6-12,26.6-26.6V126.5
		L219.7,20.1H33.6z"/>
	<path class="st1" d="M246.3,126.5H326L219.7,20.1v79.7C219.7,114.5,231.6,126.5,246.3,126.5z"/>
	<polygon class="st2" points="326,206.2 246.3,126.5 326,126.5 	"/>
	<g>
		<path class="st3" d="M122.3,290.3H227c3.6,0,6.5-2.9,6.5-6.5s-2.9-6.5-6.5-6.5H122.3c-3.6,0-6.5,2.9-6.5,6.5
			S118.7,290.3,122.3,290.3z"/>
		<path class="st3" d="M122.3,316.5h26.2c3.6,0,6.5-2.9,6.5-6.5c0-3.6-2.9-6.5-6.5-6.5h-26.2c-3.6,0-6.5,2.9-6.5,6.5
			C115.8,313.5,118.7,316.5,122.3,316.5z"/>
		<path class="st3" d="M122.3,342.6H227c3.6,0,6.5-2.9,6.5-6.5c0-3.6-2.9-6.5-6.5-6.5H122.3c-3.6,0-6.5,2.9-6.5,6.5
			C115.8,339.7,118.7,342.6,122.3,342.6z"/>
		<path class="st3" d="M30.6,368.8h150.6c3.6,0,6.5-2.9,6.5-6.5s-2.9-6.5-6.5-6.5H30.6c-3.6,0-6.5,2.9-6.5,6.5S27,368.8,30.6,368.8z
			"/>
		<path class="st3" d="M227,303.4h-52.4c-3.6,0-6.5,2.9-6.5,6.5c0,3.6,2.9,6.5,6.5,6.5H227c3.6,0,6.5-2.9,6.5-6.5
			C233.6,306.3,230.7,303.4,227,303.4z"/>
		<path class="st3" d="M227,355.7h-19.6c-3.6,0-6.5,2.9-6.5,6.5s2.9,6.5,6.5,6.5H227c3.6,0,6.5-2.9,6.5-6.5S230.7,355.7,227,355.7z"
			/>
		<path class="st3" d="M30.6,395h39.3c3.6,0,6.5-2.9,6.5-6.5s-2.9-6.5-6.5-6.5H30.6c-3.6,0-6.5,2.9-6.5,6.5S27,395,30.6,395z"/>
		<path class="st3" d="M161.6,381.9H96.1c-3.6,0-6.5,2.9-6.5,6.5s2.9,6.5,6.5,6.5h65.5c3.6,0,6.5-2.9,6.5-6.5
			S165.2,381.9,161.6,381.9z"/>
		<path class="st3" d="M227,381.9h-39.3c-3.6,0-6.5,2.9-6.5,6.5s2.9,6.5,6.5,6.5H227c3.6,0,6.5-2.9,6.5-6.5S230.7,381.9,227,381.9z"
			/>
		<path class="st3" d="M30.6,342.6h65.5c3.6,0,6.5-2.9,6.5-6.5v-78.6c0-3.6-2.9-6.5-6.5-6.5H30.6c-3.6,0-6.5,2.9-6.5,6.5v78.6
			C24.1,339.7,27,342.6,30.6,342.6z M37.2,264.1h52.4v65.5H37.2V264.1z"/>
		<path class="st3" d="M122.3,264.1h52.4c3.6,0,6.5-2.9,6.5-6.5s-2.9-6.5-6.5-6.5h-52.4c-3.6,0-6.5,2.9-6.5,6.5
			S118.7,264.1,122.3,264.1z"/>
	</g>
	<g>
		<path class="st4" d="M161.8,175.3c0,3.6-2.9,6.5-6.5,6.5H11.4c-3.6,0-6.5-2.9-6.5-6.5v-65.4c0-3.6,2.9-6.5,6.5-6.5h143.9
			c3.6,0,6.5,2.9,6.5,6.5V175.3z"/>
		<g>
			<path class="st5" d="M33.4,129.2c0-1.7,1.4-3.6,3.6-3.6H49c6.8,0,12.9,4.6,12.9,13.3c0,8.3-6.1,12.9-12.9,12.9h-8.7v6.9
				c0,2.3-1.5,3.6-3.3,3.6c-1.7,0-3.6-1.3-3.6-3.6V129.2z M40.3,132.2v13H49c3.5,0,6.3-3.1,6.3-6.3c0-3.7-2.8-6.7-6.3-6.7H40.3z"/>
			<path class="st5" d="M72.2,162.2c-1.7,0-3.6-0.9-3.6-3.2v-29.7c0-1.9,1.9-3.2,3.6-3.2h12c23.9,0,23.4,36.2,0.5,36.2H72.2z
				 M75.5,132.4v23.4h8.7c14.1,0,14.7-23.4,0-23.4H75.5L75.5,132.4z"/>
			<path class="st5" d="M116,132.8v8.3h13.3c1.9,0,3.8,1.9,3.8,3.7c0,1.7-1.9,3.1-3.8,3.1H116v11c0,1.8-1.3,3.2-3.1,3.2
				c-2.3,0-3.7-1.4-3.7-3.2v-29.7c0-1.9,1.4-3.2,3.7-3.2h18.4c2.3,0,3.7,1.4,3.7,3.2c0,1.7-1.4,3.6-3.7,3.6L116,132.8L116,132.8z"/>
		</g>
		<path class="st2" d="M155.3,181.9H31v6.5h124.3c3.6,0,6.5-2.9,6.5-6.5v-6.5C161.8,178.9,158.9,181.9,155.3,181.9z"/>
	</g>
</g>
<g>
	
		<linearGradient id="SVGID_1_" gradientUnits="userSpaceOnUse" x1="348.3532" y1="476.3105" x2="481.6504" y2="609.6077" gradientTransform="matrix(1 0 0 1 3.3 -145.63)">
		<stop  offset="0" style="stop-color:#F49581"/>
		<stop  offset="1" style="stop-color:#F36A4E"/>
	</linearGradient>
	<path class="st6" d="M301.7,237.7v246.2c0,9.7,7.9,17.5,17.6,17.6h171c9.7,0,17.6-7.9,17.6-17.6V284.9c0-5.4-2.1-10.6-6-14.4
		L457.4,226c-3.8-3.8-9-6-14.4-6H319.2C309.5,220.1,301.7,228,301.7,237.7z"/>
	<path class="st7" d="M348.5,426.1h112.4c2.8,0,5.1-2.3,5.1-5.1c0,0,0,0,0,0v-12.4c0-2.8-2.2-5.1-5-5.1c0,0,0,0,0,0H348.5
		c-2.8,0-5.1,2.3-5.1,5.1c0,0,0,0,0,0V421C343.4,423.8,345.6,426.1,348.5,426.1C348.4,426.1,348.5,426.1,348.5,426.1z"/>
	<path class="st7" d="M347.1,461.2H404c2,0,3.7-1.6,3.7-3.7v-15.2c0-2-1.7-3.7-3.7-3.7h-56.9c-2,0-3.7,1.6-3.7,3.7v15.2
		C343.4,459.6,345,461.2,347.1,461.2z"/>
	<g>
		<path class="st3" d="M372.9,435.8c0,16.9,13.7,30.6,30.6,30.6c16.9,0,30.6-13.7,30.6-30.6s-13.7-30.6-30.6-30.6
			c-1.7,0-3.1,1.4-3.1,3.1v24.5H376C374.3,432.8,372.9,434.1,372.9,435.8z M403.6,438.9c1.7,0,3.1-1.4,3.1-3.1v-24.3
			c13.4,1.7,22.9,13.9,21.2,27.4c-1.7,13.4-13.9,22.9-27.4,21.2c-11.1-1.4-19.8-10.1-21.2-21.2H403.6z"/>
		<path class="st3" d="M363.8,426.6h27.6c1.7,0,3.1-1.4,3.1-3.1V396c0-1.7-1.4-3.1-3.1-3.1c-16.9,0-30.6,13.7-30.6,30.6
			C360.7,425.3,362.1,426.6,363.8,426.6z M388.3,399.3v21.2H367C368.4,409.4,377.2,400.7,388.3,399.3z"/>
	</g>
	
		<linearGradient id="SVGID_2_" gradientUnits="userSpaceOnUse" x1="487.6872" y1="463.5437" x2="466.5094" y2="401.7318" gradientTransform="matrix(1 0 0 1 3.3 -145.63)">
		<stop  offset="0" style="stop-color:#F16B4F;stop-opacity:0"/>
		<stop  offset="1" style="stop-color:#AC5442"/>
	</linearGradient>
	<path class="st8" d="M457.4,226c-2.6-2.7-5.8-4.5-9.4-5.5V278l59.7,59.7v-52.8c0-5.4-2.1-10.6-6-14.4L457.4,226z"/>
	
		<linearGradient id="SVGID_3_" gradientUnits="userSpaceOnUse" x1="450.9519" y1="399.0159" x2="475.5181" y2="423.5821" gradientTransform="matrix(1 0 0 1 3.3 -145.63)">
		<stop  offset="0" style="stop-color:#FBAD9D"/>
		<stop  offset="1" style="stop-color:#E28D7B"/>
	</linearGradient>
	<path class="st9" d="M507.1,279.9c0,0.3,0.1,0.5,0.2,0.8h-53.9c-3.8,0-6.9-3-7-6.9c0,0,0,0,0-0.1v-53.4l1.3,0.2
		c4,0.9,7.7,3,10.6,5.9l42.9,42.8C504.2,272.3,506.2,275.9,507.1,279.9z"/>
	
		<linearGradient id="SVGID_4_" gradientUnits="userSpaceOnUse" x1="-497.2977" y1="623.5907" x2="-497.2977" y2="650.8349" gradientTransform="matrix(-1 0 0 1 -92.61 -145.63)">
		<stop  offset="0" style="stop-color:#F0684C;stop-opacity:0"/>
		<stop  offset="1" style="stop-color:#AD5745"/>
	</linearGradient>
	<path class="st10" d="M507.7,466.8v17.1c0,9.7-7.9,17.6-17.6,17.6h-171c-9.7,0-17.5-7.9-17.5-17.6v-17.1H507.7z"/>
	<path class="st5" d="M338.5,365.4v-38.8H355c1.8,0,3.5,0.4,5.1,1.1c1.5,0.7,2.9,1.8,4,3c1.2,1.2,2.1,2.7,2.7,4.2
		c0.6,1.5,0.9,3.2,0.9,4.8c0,2.2-0.5,4.4-1.6,6.3c-1,2-2.6,3.7-4.5,4.9c-1.9,1.3-4.2,1.9-6.5,1.9h-7.8v12.5H338.5z M347.5,345h7.3
		c0.7,0,1.4-0.2,1.9-0.6c0.6-0.4,1.1-1.1,1.4-1.8c0.4-0.9,0.6-1.9,0.5-3c0-1-0.2-2.1-0.6-3c-0.4-0.7-0.9-1.3-1.6-1.7
		c-0.6-0.4-1.3-0.5-2-0.5h-7V345z"/>
	<path class="st5" d="M372.5,365.4v-38.8h16.6c1.8,0,3.5,0.4,5.1,1.1c1.5,0.7,2.9,1.8,4,3c1.2,1.2,2.1,2.7,2.7,4.2
		c0.6,1.5,0.9,3.2,0.9,4.8c0,2.2-0.5,4.4-1.6,6.3c-1,2-2.5,3.7-4.3,4.9c-1.9,1.3-4.2,1.9-6.5,1.9h-8v12.5L372.5,365.4z M381.5,345
		h7.3c0.7,0,1.4-0.2,1.9-0.6c0.6-0.4,1.1-1.1,1.4-1.8c0.4-0.9,0.6-1.9,0.5-3c0-1-0.2-2.1-0.6-3c-0.4-0.7-0.9-1.3-1.6-1.7
		c-0.6-0.4-1.3-0.5-2-0.5h-7V345z"/>
	<path class="st5" d="M436.2,334.5h-11.8v30.9h-9v-30.9h-11.9v-7.9h32.6V334.5z"/>
</g>
</svg>
